#!OML:ASF X:\für Bonn\!DataBase\2005_08_10_Bjorn_Final\c3d\bjorn.ASF
:FULLY-SPECIFIED
:DEGREES
431
root 11.8835 19.2976 0.17608 72.994 -93.1794 -66.7301
lowerback 1.87835 1.14444 0.156818
upperback 4.17384 1.47972 -1.31699
thorax 3.27553 0.73331 -1.42873
lowerneck -7.36452 -1.41176 5.25483
upperneck -0.718882 -2.28412 -6.36572
head 0.91664 -1.2795 -3.04235
rclavicle -9.44227e-015 -8.94531e-016
rhumerus -21.0363 -3.78041 -87.2942
rradius 24.223
rwrist 2.75238
rhand -12.1958 10.0665
rfingers 7.12502
rthumb 13.8683 -19.4511
lclavicle -9.44227e-015 -8.94531e-016
lhumerus -28.2601 -21.91 94.8351
lradius 46.7072
lwrist -17.8562
lhand -22.3605 -12.5284
lfingers 7.12502
lthumb 4.06063 17.4126
rfemur -9.53937 -15.1014 12.6212
rtibia 25.1456
rfoot -9.83097 28.3899
rtoes 12.4899
lfemur -20.9414 5.55241 -18.8739
ltibia 34.4546
lfoot -14.7887 -3.84879
ltoes -12.1636
432
root 11.8465 19.2898 0.201451 71.5642 -93.0972 -65.2662
lowerback 1.87945 1.17417 0.121083
upperback 4.22128 1.51712 -1.24966
thorax 3.32217 0.749454 -1.33861
lowerneck -7.36102 -1.46078 5.0085
upperneck -0.848793 -2.33827 -6.2917
head 0.872991 -1.30607 -2.96984
rclavicle 4.02539e-015 1.65985e-014
rhumerus -21.1521 -4.59571 -87.0192
rradius 23.9969
rwrist 3.24304
rhand -12.0443 10.1178
rfingers 7.12502
rthumb 14.0143 -19.3898
lclavicle 4.02539e-015 1.65985e-014
lhumerus -28.6614 -21.167 94.9057
lradius 46.8674
lwrist -18.1649
lhand -22.2353 -12.5635
lfingers 7.12502
lthumb 4.18153 17.3752
rfemur -9.39386 -14.8776 12.6417
rtibia 25.0614
rfoot -10.0185 28.2674
rtoes 12.3025
lfemur -20.9505 5.50559 -18.8866
ltibia 34.3062
lfoot -14.8008 -3.71115
ltoes -11.7405
433
root 11.8068 19.2814 0.228127 70.1623 -93.0328 -63.8221
lowerback 1.84275 1.21392 0.125471
upperback 4.27723 1.56934 -1.24756
thorax 3.40235 0.775346 -1.33702
lowerneck -7.36867 -1.50928 4.84687
upperneck -0.976845 -2.39874 -6.17728
head 0.831404 -1.33495 -2.90018
rclavicle 9.93923e-017 -1.89839e-014
rhumerus -21.2935 -5.4744 -86.8184
rradius 23.8049
rwrist 3.7186
rhand -11.9556 10.1789
rfingers 7.12502
rthumb 14.0998 -19.3227
lclavicle 9.93923e-017 -1.89839e-014
lhumerus -29.0549 -20.5073 94.9021
lradius 46.9939
lwrist -18.4721
lhand -22.2382 -12.635
lfingers 7.12502
lthumb 4.17871 17.3038
rfemur -9.27508 -14.7243 12.6377
rtibia 25.0227
rfoot -10.2839 28.18
rtoes 11.8888
lfemur -20.9096 5.48935 -18.9243
ltibia 34.1814
lfoot -14.8641 -3.56764
ltoes -11.5326
434
root 11.7652 19.2699 0.255081 68.6353 -92.9697 -62.2617
lowerback 1.78297 1.2504 0.0822577
upperback 4.34574 1.61709 -1.23416
thorax 3.50676 0.797173 -1.29649
lowerneck -7.37547 -1.55303 4.77704
upperneck -1.11911 -2.46053 -6.13842
head 0.784023 -1.36594 -2.87343
rclavicle -1.38404e-014 -1.39149e-015
rhumerus -21.4174 -6.27823 -86.6001
rradius 23.603
rwrist 4.14163
rhand -11.8862 10.1899
rfingers 7.12502
rthumb 14.1667 -19.3071
lclavicle -1.38404e-014 -1.39149e-015
lhumerus -29.4086 -19.791 94.9061
lradius 47.0455
lwrist -18.8922
lhand -22.4479 -12.6879
lfingers 7.12502
lthumb 3.97624 17.2547
rfemur -9.15782 -14.5295 12.631
rtibia 25.0225
rfoot -10.6239 28.0674
rtoes 11.3049
lfemur -20.7973 5.51032 -18.9623
ltibia 34.082
lfoot -14.9815 -3.42414
ltoes -11.6309
435
root 11.7213 19.2592 0.283125 66.9065 -92.9122 -60.5198
lowerback 1.72945 1.28037 0.0320433
upperback 4.41775 1.65616 -1.22676
thorax 3.61103 0.814359 -1.25834
lowerneck -7.37432 -1.5867 4.70231
upperneck -1.23435 -2.50653 -6.06556
head 0.745279 -1.3881 -2.83412
rclavicle -6.4605e-016 3.18055e-015
rhumerus -21.5972 -6.89431 -86.4056
rradius 23.4664
rwrist 4.36423
rhand -11.8288 10.1932
rfingers 7.12502
rthumb 14.222 -19.2999
lclavicle -6.4605e-016 3.18055e-015
lhumerus -29.7611 -19.0774 94.8943
lradius 47.0654
lwrist -19.2929
lhand -22.6973 -12.7659
lfingers 7.12502
lthumb 3.73538 17.1811
rfemur -9.02917 -14.2846 12.6134
rtibia 25.0501
rfoot -11.0134 27.919
rtoes 10.714
lfemur -20.6278 5.55527 -18.9998
ltibia 33.9973
lfoot -15.1528 -3.2931
ltoes -11.6408
436
root 11.6756 19.2473 0.311331 65.2809 -92.8773 -58.8602
lowerback 1.62942 1.31247 -0.0275849
upperback 4.493 1.69972 -1.26051
thorax 3.74611 0.834162 -1.25605
lowerneck -7.39969 -1.62848 4.71706
upperneck -1.3359 -2.57061 -5.99957
head 0.713758 -1.41993 -2.8151
rclavicle 1.87355e-014 4.17448e-015
rhumerus -21.774 -7.56455 -86.2368
rradius 23.3166
rwrist 4.57041
rhand -11.7953 10.256
rfingers 7.12502
rthumb 14.2542 -19.2348
lclavicle 1.87355e-014 4.17448e-015
lhumerus -30.0838 -18.47 94.8272
lradius 47.031
lwrist -19.6304
lhand -23.042 -12.88
lfingers 7.12502
lthumb 3.40251 17.0726
rfemur -8.91647 -14.0292 12.5758
rtibia 25.0789
rfoot -11.3954 27.7896
rtoes 10.0042
lfemur -20.4844 5.60132 -19.059
ltibia 33.9351
lfoot -15.2968 -3.13591
ltoes -11.7542
437
root 11.6284 19.2356 0.340137 63.7548 -92.8366 -57.3303
lowerback 1.5663 1.34632 -0.0904063
upperback 4.56479 1.74541 -1.29716
thorax 3.85687 0.85475 -1.25569
lowerneck -7.381 -1.67325 4.7733
upperneck -1.4462 -2.64021 -5.95804
head 0.670874 -1.45427 -2.81125
rclavicle 2.59662e-014 -8.24956e-015
rhumerus -22.0125 -8.23933 -86.0682
rradius 23.2198
rwrist 4.73924
rhand -11.7591 10.2561
rfingers 7.12502
rthumb 14.2891 -19.2322
lclavicle 2.59662e-014 -8.24956e-015
lhumerus -30.397 -17.8559 94.7596
lradius 46.9719
lwrist -19.9079
lhand -23.3017 -12.9596
lfingers 7.12502
lthumb 3.15171 16.9969
rfemur -8.74917 -13.6955 12.5379
rtibia 25.0931
rfoot -11.8657 27.5747
rtoes 9.22225
lfemur -20.3171 5.70792 -19.1167
ltibia 33.8849
lfoot -15.4313 -3.06245
ltoes -11.8079
